<svg xmlns="http://www.w3.org/2000/svg" data-name="Layer 2" x="0px" y="0px" viewBox="0 0 64 65"><path d="M24.012,48.013a24.008,24.008,0,1,1,16.98-40.98h0a24,24,0,0,1-16.98,40.98Zm0-46A22,22,0,1,0,39.578,8.447,21.946,21.946,0,0,0,24.013,2.011Z"/><path d="M24.012,45a20.983,20.983,0,1,1,14.844-6.139h0A20.924,20.924,0,0,1,24.012,45Zm0-39.966a18.984,18.984,0,1,0,13.429,5.554A18.931,18.931,0,0,0,24.013,5.029Zm14.136,33.12h0Z"/><path d="M42.34,45.934a.993.993,0,0,1-.707-.293L38.28,42.289a1,1,0,0,1,0-1.414l2.595-2.595a1,1,0,0,1,.707-.293h0a1,1,0,0,1,.707.293l3.353,3.354a1,1,0,0,1,0,1.414l-2.6,2.593A.993.993,0,0,1,42.34,45.934ZM40.4,41.582,42.34,43.52l1.181-1.179L41.582,40.4Z"/><path d="M57.988,64a2.49,2.49,0,0,1-1.775-.736L41.179,48.231a2.513,2.513,0,0,1,0-3.55l3.5-3.5a2.568,2.568,0,0,1,3.549,0L63.265,56.213a2.511,2.511,0,0,1,0,3.549h0l-3.5,3.5A2.492,2.492,0,0,1,57.988,64ZM46.456,42.444a.508.508,0,0,0-.36.15l-3.5,3.5a.512.512,0,0,0,0,.722L57.627,61.85a.508.508,0,0,0,.721,0l3.5-3.5a.511.511,0,0,0,0-.721L46.817,42.594A.507.507,0,0,0,46.456,42.444Zm16.1,16.611h0Z"/><path d="M14.64,30h-4a1,1,0,0,1-1-1v-4.62a1,1,0,0,1,1-1h4a1,1,0,0,1,1,1V29A1,1,0,0,1,14.64,30Zm-3-2h2v-2.62h-2Z"/><path d="M21.5,30h-4a1,1,0,0,1-1-1V20.931a1,1,0,0,1,1-1h4a1,1,0,0,1,1,1V29A1,1,0,0,1,21.5,30Zm-3-2h2V21.931h-2Z"/><path d="M28.366,30h-4a1,1,0,0,1-1-1V17.489a1,1,0,0,1,1-1h4a1,1,0,0,1,1,1V29A1,1,0,0,1,28.366,30Zm-3-2h2V18.489h-2Z"/><path d="M35.229,30h-4a1,1,0,0,1-1-1V14.136a1,1,0,0,1,1-1h4a1,1,0,0,1,1,1V29A1,1,0,0,1,35.229,30Zm-3-2h2V15.136h-2Z"/><text xmlns="http://www.w3.org/2000/svg" fill="#000000" font-weight="bold" font-family="'Helvetica Neue', Helvetica, Arial-Unicode, Arial, Sans-serif" y="60" x="1" font-size="3px">Created by Adam Novantio</text><text xmlns="http://www.w3.org/2000/svg" fill="#000000" font-size="3px" font-weight="bold" font-family="'Helvetica Neue', Helvetica, Arial-Unicode, Arial, Sans-serif" y="64" x="1">from the Noun Project</text></svg>